<?xml version="1.0" standalone="no"?>
<!DOCTYPE svg PUBLIC "-//W3C//DTD SVG 20010904//EN"
 "http://www.w3.org/TR/2001/REC-SVG-20010904/DTD/svg10.dtd">
<svg version="1.0" xmlns="http://www.w3.org/2000/svg"
 width="264.000000pt" height="264.000000pt" viewBox="0 0 264.000000 264.000000"
 preserveAspectRatio="xMidYMid meet">
<metadata>
Created by potrace 1.14, written by Peter Selinger 2001-2017
</metadata>
<g transform="translate(0.000000,264.000000) scale(0.100000,-0.100000)"
fill="#000000" stroke="none">
<path d="M674 2362 c-52 -25 -99 -82 -113 -138 -7 -25 -11 -150 -11 -307 l0
-265 48 -30 c196 -126 450 -192 737 -192 287 0 557 71 737 193 l48 32 0 263
c0 159 -4 281 -11 307 -15 59 -68 119 -124 141 -60 23 -160 15 -370 -27 -220
-45 -339 -45 -560 0 -209 42 -325 49 -381 23z"/>
<path d="M240 1668 c-53 -28 -74 -120 -46 -201 81 -227 523 -412 1056 -443
372 -21 864 101 1086 269 114 87 174 212 145 307 -18 62 -57 82 -146 77 -38
-3 -103 -12 -142 -22 l-73 -17 0 -69 0 -69 -42 -31 c-99 -71 -278 -140 -463
-176 -126 -24 -434 -24 -560 0 -185 36 -364 105 -462 176 l-43 31 0 69 0 69
-72 17 c-100 24 -207 29 -238 13z"/>
<path d="M1040 934 c-63 -27 -134 -90 -234 -207 -114 -132 -178 -186 -244
-202 -119 -31 -232 44 -232 154 0 44 0 45 16 23 32 -47 103 -65 154 -39 32 16
70 73 70 104 0 38 -27 87 -59 106 -39 23 -113 22 -161 -3 -114 -58 -135 -277
-40 -409 57 -79 178 -136 311 -149 231 -23 449 54 623 219 l81 77 76 -73 c175
-167 396 -246 628 -223 133 13 254 70 311 149 95 132 74 351 -40 409 -48 25
-122 26 -161 3 -32 -19 -59 -68 -59 -106 0 -31 38 -88 70 -104 51 -26 122 -8
154 39 16 22 16 21 16 -23 0 -110 -113 -185 -232 -154 -66 16 -130 70 -244
202 -146 171 -223 223 -327 223 -61 0 -105 -13 -157 -45 l-35 -22 -35 22 c-19
12 -50 27 -69 33 -47 16 -139 14 -181 -4z"/>
</g>
</svg>
